<svg id="Layer_1" data-name="Layer 1" xmlns="http://www.w3.org/2000/svg" viewBox="0 0 417.58 100">
  <defs>
    <style>
      .cls-1 {
        fill: #09796f;
      }
    </style>
  </defs>
  <title>Augnitive-only-logo</title>
  <g>
    <path class="cls-1" d="M158.56,400a83.67,83.67,0,0,0-10.4-8.85l5.51,9.54,5.15,8.91a70.29,70.29,0,0,1,8.64,12.91,50.06,50.06,0,0,0,2.14-6.1c0.2-.7.36-1.35,0.5-2A81.74,81.74,0,0,0,158.56,400Zm19.77,33.79a55.18,55.18,0,0,0-1.72-6c-0.84,1.87-1.78,3.74-2.8,5.58l-0.61,1.1,1.85,3.21,4.4,7.63A43,43,0,0,0,178.33,433.75Z" transform="translate(-87.63 -370.88)"/>
    <path class="cls-1" d="M162.94,469.09a31.31,31.31,0,0,1-10.77,1.8,44.32,44.32,0,0,1-9.82-1.16,56.83,56.83,0,0,1-8.79-2.79,56.83,56.83,0,0,1-8.79,2.79,44.32,44.32,0,0,1-9.81,1.16,30.88,30.88,0,0,1-11.46-2.06l30-54.75Z" transform="translate(-87.63 -370.88)"/>
    <path class="cls-1" d="M179,449.54a25.55,25.55,0,0,1-7,13.84q-0.63.63-1.3,1.2l-37.07-69.29-37.72,68.8c-0.25-.23-0.5-0.47-0.75-0.72a25.52,25.52,0,0,1-7-13.84l45.41-78.66Z" transform="translate(-87.63 -370.88)"/>
    <path class="cls-1" d="M143.44,388q-0.93-.57-1.86-1.1l1.06-.29Z" transform="translate(-87.63 -370.88)"/>
    <g>
      <path class="cls-1" d="M93.32,433.38c-1-1.83-2-3.7-2.8-5.58a54.17,54.17,0,0,0-1.72,5.95,43,43,0,0,0-1.12,11.56l4.4-7.63,1.85-3.2ZM108.57,400A81.57,81.57,0,0,0,97,414.39c0.14,0.64.31,1.28,0.5,2a50.59,50.59,0,0,0,2.14,6.11,69.82,69.82,0,0,1,8.64-12.9l5.15-8.92,5.51-9.55A83.32,83.32,0,0,0,108.57,400Z" transform="translate(-87.63 -370.88)"/>
      <path class="cls-1" d="M125.65,383.74l-1.53,2.66,1.54-2.66h0Z" transform="translate(-87.63 -370.88)"/>
    </g>
  </g>
  <g>
    <path class="cls-1" d="M234.6,450.9H216l-3,7.62H201.4l18.5-43.09h11.56l18.07,43.09h-12Zm-3.32-8.61-5.9-15.37-6,15.37h11.93Z" transform="translate(-87.63 -370.88)"/>
    <path class="cls-1" d="M284.46,425.27v33.26H273.51v-5.41c-2.27,3.87-5.9,5.84-10.64,5.9-7.19,0-11.86-5-11.86-12.73v-21H262v17.89c0,3.75,2.09,6,5.35,6,3.87-.06,6.21-3.13,6.21-7.5V425.27h10.94Z" transform="translate(-87.63 -370.88)"/>
    <path class="cls-1" d="M324.66,425.27v30.31c0,9.41-7.32,15.31-18.07,15.31a27.61,27.61,0,0,1-14.88-4.3l3.81-7.56a18.31,18.31,0,0,0,10.27,3.26c5,0,8-2.52,8-6.39v-3.57a11.3,11.3,0,0,1-9.47,4.37c-8.3,0-14.2-6.39-14.2-16,0-9.47,5.72-15.74,14-15.74a11.82,11.82,0,0,1,9.71,4.43v-4.06h10.88Zm-10.88,15.68c0-4.67-2.7-7.81-6.7-7.81s-6.76,3.2-6.76,7.81,2.7,7.75,6.76,7.75S313.78,445.49,313.78,440.95Z" transform="translate(-87.63 -370.88)"/>
    <path class="cls-1" d="M366.65,437.56v21H355.77V440.7c0-3.75-2.21-6.09-5.66-6.09-3.69.06-6.09,2.58-6.52,6.33v17.58H332.65V425.27H343.6v5.41c2.34-3.81,6.15-5.84,11-5.84C361.85,424.84,366.65,429.76,366.65,437.56Z" transform="translate(-87.63 -370.88)"/>
    <path class="cls-1" d="M385,425.27v33.26H374.09V425.27H385Zm-0.43-9.34a5,5,0,1,1-5-5A4.81,4.81,0,0,1,384.54,415.92Z" transform="translate(-87.63 -370.88)"/>
    <path class="cls-1" d="M415,456.81a18.31,18.31,0,0,1-9,2.21c-6.46.06-11.13-3.75-11.13-10.64V434.12h-4.61v-7.25h4.61v-9.22h10.88v9.22h8.61v7.25h-8.61v12.54c0,2.46,1.11,3.57,3,3.5a11.49,11.49,0,0,0,4.12-1.11Z" transform="translate(-87.63 -370.88)"/>
    <path class="cls-1" d="M431.08,425.27v33.26H420.2V425.27h10.88Zm-0.43-9.34a5,5,0,1,1-5-5A4.81,4.81,0,0,1,430.65,415.92Z" transform="translate(-87.63 -370.88)"/>
    <path class="cls-1" d="M446.2,425.27l6.95,23.11,7-23.11H471.1l-12.48,33.26H447.37L435,425.27H446.2Z" transform="translate(-87.63 -370.88)"/>
    <path class="cls-1" d="M505.16,444.82H482a7.45,7.45,0,0,0,7.56,5.84,11,11,0,0,0,7.81-3.38l5.72,5.72c-3.38,3.81-8.36,5.9-14.51,5.9-10.88,0-17.58-6.7-17.58-16.84,0-10.33,6.95-17.15,17.34-17.15C500,424.9,505.89,432.71,505.16,444.82ZM494.58,439c0-3.81-2.46-6.39-6.15-6.39s-5.9,2.58-6.64,6.39h12.79Z" transform="translate(-87.63 -370.88)"/>
  </g>
</svg>
